<?xml version="1.0" ?><!DOCTYPE svg  PUBLIC '-//W3C//DTD SVG 1.1//EN'  'http://www.w3.org/Graphics/SVG/1.1/DTD/svg11.dtd'><svg enable-background="new 0 0 24 24" height="24px" id="Layer_1" version="1.1" viewBox="0 0 24 24" width="24px" xml:space="preserve" xmlns="http://www.w3.org/2000/svg" xmlns:xlink="http://www.w3.org/1999/xlink"><g fill="#ffffff"><path d="M19.7,0.5H4.3c-2.1,0-3.8,1.7-3.8,3.8v15.4c0,2.1,1.7,3.8,3.8,3.8h15.4c2.1,0,3.8-1.7,3.8-3.8V4.3   C23.5,2.2,21.8,0.5,19.7,0.5z M6.9,14.1c-1.2,0-2.1-0.9-2.1-2.1c0-1.2,0.9-2.1,2.1-2.1C8.1,9.9,9,10.8,9,12   C9,13.2,8.1,14.1,6.9,14.1z M12,18.9c-1.2,0-2.1-0.9-2.1-2.1c0-1.2,0.9-2.1,2.1-2.1s2.1,0.9,2.1,2.1C14.1,18,13.2,18.9,12,18.9z    M12,14.1c-1.2,0-2.1-0.9-2.1-2.1c0-1.2,0.9-2.1,2.1-2.1s2.1,0.9,2.1,2.1C14.1,13.2,13.2,14.1,12,14.1z M12,9.2   c-1.2,0-2.1-0.9-2.1-2.1c0-1.2,0.9-2.1,2.1-2.1s2.1,0.9,2.1,2.1C14.1,8.3,13.2,9.2,12,9.2z M17.1,18.9c-1.2,0-2.1-0.9-2.1-2.1   c0-1.2,0.9-2.1,2.1-2.1s2.1,0.9,2.1,2.1C19.2,18,18.2,18.9,17.1,18.9z M17.1,14.1c-1.2,0-2.1-0.9-2.1-2.1c0-1.2,0.9-2.1,2.1-2.1   s2.1,0.9,2.1,2.1C19.2,13.2,18.2,14.1,17.1,14.1z M17.1,9.2c-1.2,0-2.1-0.9-2.1-2.1c0-1.2,0.9-2.1,2.1-2.1s2.1,0.9,2.1,2.1   C19.2,8.3,18.2,9.2,17.1,9.2z"/></g></svg>